<svg width="1920" height="1080" viewBox="0 0 1920 1080" xmlns="http://www.w3.org/2000/svg"><rect width="1920" height="1080" fill="#ffffff"/><path d="M1920,1080C1600.3333333333333,1137.1666666666667,285,1142.8333333333333,0,1080C-285,1017.1666666666666,140.16666666666669,733.1666666666666,210,703C279.8333333333333,672.8333333333334,347.5,878.6666666666666,419,899C490.5,919.3333333333334,566.8333333333334,826.1666666666666,639,825C711.1666666666666,823.8333333333334,781.1666666666666,904.6666666666666,852,892C922.8333333333334,879.3333333333334,994.3333333333334,742,1064,749C1133.6666666666667,756,1199.3333333333333,929.3333333333334,1270,934C1340.6666666666667,938.6666666666666,1415.8333333333333,815.3333333333334,1488,777C1560.1666666666667,738.6666666666666,1631.3333333333333,710.6666666666666,1703,704C1774.6666666666667,697.3333333333334,1881.8333333333333,674.3333333333334,1918,737C1954.1666666666667,799.6666666666666,2239.6666666666665,1022.8333333333334,1920,1080C1600.3333333333333,1137.1666666666667,285,1142.8333333333333,0,1080" fill="#dcfce7"/></svg>