<svg id="visual" viewBox="0 0 900 600" width="900" height="600" xmlns="http://www.w3.org/2000/svg" xmlns:xlink="http://www.w3.org/1999/xlink" version="1.1"><rect x="0" y="0" width="900" height="600" fill="#e2ebff"></rect><defs><linearGradient id="grad1_0" x1="33.3%" y1="0%" x2="100%" y2="100%"><stop offset="20%" stop-color="#bac5fe" stop-opacity="1"></stop><stop offset="80%" stop-color="#bac5fe" stop-opacity="1"></stop></linearGradient></defs><defs><linearGradient id="grad1_1" x1="33.3%" y1="0%" x2="100%" y2="100%"><stop offset="20%" stop-color="#bac5fe" stop-opacity="1"></stop><stop offset="80%" stop-color="#e2ebff" stop-opacity="1"></stop></linearGradient></defs><defs><linearGradient id="grad2_0" x1="0%" y1="0%" x2="66.7%" y2="100%"><stop offset="20%" stop-color="#bac5fe" stop-opacity="1"></stop><stop offset="80%" stop-color="#bac5fe" stop-opacity="1"></stop></linearGradient></defs><defs><linearGradient id="grad2_1" x1="0%" y1="0%" x2="66.7%" y2="100%"><stop offset="20%" stop-color="#e2ebff" stop-opacity="1"></stop><stop offset="80%" stop-color="#bac5fe" stop-opacity="1"></stop></linearGradient></defs><g transform="translate(900, 0)"><path d="M0 405.6C-52.2 392.3 -104.4 379 -147 354.8C-189.5 330.5 -222.3 295.3 -262.3 262.3C-302.4 229.4 -349.7 198.6 -374.7 155.2C-399.8 111.9 -402.7 55.9 -405.6 0L0 0Z" fill="#ccd8ff"></path><path d="M0 202.8C-26.1 196.2 -52.2 189.5 -73.5 177.4C-94.7 165.3 -111.1 147.7 -131.2 131.2C-151.2 114.7 -174.8 99.3 -187.4 77.6C-199.9 55.9 -201.4 28 -202.8 0L0 0Z" fill="#bac5fe"></path></g><g transform="translate(0, 600)"><path d="M0 -405.6C49.9 -392.6 99.9 -379.6 150 -362.2C200.1 -344.7 250.5 -322.9 286.8 -286.8C323.2 -250.8 345.6 -200.6 363.1 -150.4C380.6 -100.2 393.1 -50.1 405.6 0L0 0Z" fill="#ccd8ff"></path><path d="M0 -202.8C25 -196.3 49.9 -189.8 75 -181.1C100.1 -172.4 125.2 -161.4 143.4 -143.4C161.6 -125.4 172.8 -100.3 181.5 -75.2C190.3 -50.1 196.5 -25.1 202.8 0L0 0Z" fill="#bac5fe"></path></g></svg>