<svg width="1920" height="1080" viewBox="0 0 1920 1080" xmlns="http://www.w3.org/2000/svg" style="transform: rotate(180deg);"><rect width="1920" height="1080" fill="#f1edf8"/><path d="M1920,1080C1601,1144.6666666666667,285.8333333333333,1124.1666666666667,0,1080C-285.8333333333333,1035.8333333333333,135.5,835,205,815C274.5,795,345.8333333333333,962.6666666666666,417,960C488.1666666666667,957.3333333333334,560.8333333333334,799.3333333333334,632,799C703.1666666666666,798.6666666666666,771.8333333333334,966.8333333333334,844,958C916.1666666666666,949.1666666666666,993.1666666666666,772,1065,746C1136.8333333333333,720,1204.1666666666667,779.1666666666666,1275,802C1345.8333333333333,824.8333333333334,1419,902.5,1490,883C1561,863.5,1630.3333333333333,716.8333333333334,1701,685C1771.6666666666667,653.1666666666666,1877.5,626.1666666666666,1914,692C1950.5,757.8333333333334,2239,1015.3333333333334,1920,1080C1601,1144.6666666666667,285.8333333333333,1124.1666666666667,0,1080" fill="#b6b0e8"/></svg>