<svg width="1920" height="1080" viewBox="0 0 1920 1080" xmlns="http://www.w3.org/2000/svg" style="transform: rotate(180deg);"><path d="M 0,1080 C 0,1080 0,180 0,180 C 84.5205128205128,178.09230769230768 169.0410256410256,176.18461538461537 265,180 C 360.9589743589744,183.81538461538463 468.3564102564103,193.35384615384618 604,179 C 739.6435897435897,164.64615384615382 903.5333333333335,126.39999999999998 1002,146 C 1100.4666666666665,165.60000000000002 1133.5102564102565,243.04615384615389 1220,247 C 1306.4897435897435,250.95384615384611 1446.425641025641,181.41538461538462 1572,158 C 1697.574358974359,134.58461538461538 1808.7871794871794,157.2923076923077 1920,180 C 1920,180 1920,1080 1920,1080 Z" fill="#c0bfbf" opacity="0.09999999999999999"/><path d="M 0,1080 C 0,1080 0,360 0,360 C 93.94102564102565,336.79999999999995 187.8820512820513,313.59999999999997 282,309 C 376.1179487179487,304.40000000000003 470.41282051282053,318.40000000000003 604,325 C 737.5871794871795,331.59999999999997 910.4666666666665,330.79999999999995 1017,327 C 1123.5333333333335,323.20000000000005 1163.720512820513,316.40000000000003 1250,309 C 1336.279487179487,301.59999999999997 1468.6512820512821,293.6 1588,302 C 1707.3487179487179,310.4 1813.674358974359,335.2 1920,360 C 1920,360 1920,1080 1920,1080 Z" fill="#c0bfbf" opacity="0.19999999999999998"/><path d="M 0,1080 C 0,1080 0,540 0,540 C 129.5230769230769,577.1589743589743 259.0461538461538,614.3179487179488 352,590 C 444.9538461538462,565.6820512820512 501.3384615384616,479.8871794871795 596,473 C 690.6615384615384,466.1128205128205 823.6000000000001,538.1333333333333 951,542 C 1078.3999999999999,545.8666666666667 1200.2615384615385,481.57948717948716 1302,485 C 1403.7384615384615,488.42051282051284 1485.353846153846,559.5487179487179 1585,580 C 1684.646153846154,600.4512820512821 1802.323076923077,570.225641025641 1920,540 C 1920,540 1920,1080 1920,1080 Z" fill="#c0bfbf" opacity="0.3"/><path d="M 0,1080 C 0,1080 0,720 0,720 C 110.44615384615386,699.7025641025641 220.89230769230772,679.4051282051281 331,665 C 441.1076923076923,650.5948717948719 550.8769230769229,642.0820512820513 657,664 C 763.1230769230771,685.9179487179487 865.6000000000001,738.2666666666667 971,756 C 1076.3999999999999,773.7333333333333 1184.7230769230769,756.851282051282 1275,760 C 1365.2769230769231,763.148717948718 1437.5076923076924,786.3282051282051 1542,783 C 1646.4923076923076,779.6717948717949 1783.246153846154,749.8358974358974 1920,720 C 1920,720 1920,1080 1920,1080 Z" fill="#c0bfbf" opacity="0.39999999999999997"/><path d="M 0,1080 C 0,1080 0,900 0,900 C 117.45128205128205,936.9743589743589 234.9025641025641,973.9487179487179 355,958 C 475.0974358974359,942.0512820512821 597.8410256410258,873.1794871794871 681,870 C 764.1589743589742,866.8205128205129 807.7333333333332,929.3333333333334 907,942 C 1006.2666666666668,954.6666666666666 1161.2256410256412,917.4871794871794 1296,892 C 1430.7743589743588,866.5128205128206 1545.3641025641025,852.7179487179488 1646,856 C 1746.6358974358975,859.2820512820512 1833.3179487179486,879.6410256410256 1920,900 C 1920,900 1920,1080 1920,1080 Z" fill="#c0bfbf" opacity="0.49999999999999994"/></svg>