<svg width="1920" height="1080" viewBox="0 0 1920 1080" xmlns="http://www.w3.org/2000/svg"><rect width="1920" height="1080" fill="#d9cfff"/><path d="M 0,1080 C 0,1080 0,180 0,180 C 95.23333333333332,184.81025641025641 190.46666666666664,189.62051282051283 311,180 C 431.53333333333336,170.37948717948717 577.3666666666667,146.32820512820516 672,144 C 766.6333333333333,141.67179487179484 810.0666666666667,161.06666666666663 917,164 C 1023.9333333333333,166.93333333333337 1194.3666666666666,153.40512820512822 1304,160 C 1413.6333333333334,166.59487179487178 1462.4666666666667,193.3128205128205 1555,200 C 1647.5333333333333,206.6871794871795 1783.7666666666667,193.34358974358975 1920,180 C 1920,180 1920,1080 1920,1080 Z" fill="#e864c5" opacity="0.09999999999999999"/><path d="M 0,1080 C 0,1080 0,360 0,360 C 104.97179487179486,357.35128205128206 209.9435897435897,354.70256410256417 314,370 C 418.0564102564103,385.29743589743583 521.197435897436,418.5410256410256 642,422 C 762.802564102564,425.4589743589744 901.2666666666667,399.1333333333334 1015,366 C 1128.7333333333333,332.8666666666666 1217.7358974358974,292.9256410256411 1297,312 C 1376.2641025641026,331.0743589743589 1445.7897435897435,409.16410256410256 1548,427 C 1650.2102564102565,444.83589743589744 1785.1051282051283,402.4179487179487 1920,360 C 1920,360 1920,1080 1920,1080 Z" fill="#e864c5" opacity="0.19999999999999998"/><path d="M 0,1080 C 0,1080 0,540 0,540 C 117.67435897435897,536.3897435897436 235.34871794871793,532.7794871794872 344,525 C 452.65128205128207,517.2205128205128 552.2794871794872,505.27179487179484 642,507 C 731.7205128205128,508.72820512820516 811.5333333333335,524.1333333333334 926,515 C 1040.4666666666665,505.86666666666656 1189.5871794871796,472.19487179487174 1318,473 C 1446.4128205128204,473.80512820512826 1554.1179487179488,509.08717948717947 1651,526 C 1747.8820512820512,542.9128205128205 1833.9410256410256,541.4564102564102 1920,540 C 1920,540 1920,1080 1920,1080 Z" fill="#e864c5" opacity="0.3"/><path d="M 0,1080 C 0,1080 0,720 0,720 C 100.24615384615385,683.2435897435897 200.4923076923077,646.4871794871794 319,662 C 437.5076923076923,677.5128205128206 574.276923076923,745.2948717948718 680,765 C 785.723076923077,784.7051282051282 860.4,756.3333333333334 941,744 C 1021.6,731.6666666666666 1108.123076923077,735.3717948717948 1237,719 C 1365.876923076923,702.6282051282052 1537.1076923076923,666.1794871794873 1658,663 C 1778.8923076923077,659.8205128205127 1849.4461538461537,689.9102564102564 1920,720 C 1920,720 1920,1080 1920,1080 Z" fill="#e864c5" opacity="0.39999999999999997"/><path d="M 0,1080 C 0,1080 0,900 0,900 C 91.43076923076924,931.3435897435897 182.8615384615385,962.6871794871795 308,947 C 433.1384615384615,931.3128205128205 591.9846153846154,868.5948717948719 691,843 C 790.0153846153846,817.4051282051281 829.1999999999999,828.9333333333333 921,842 C 1012.8000000000001,855.0666666666667 1157.2153846153847,869.6717948717949 1288,869 C 1418.7846153846153,868.3282051282051 1535.9384615384618,852.3794871794871 1639,855 C 1742.0615384615382,857.6205128205129 1831.0307692307692,878.8102564102564 1920,900 C 1920,900 1920,1080 1920,1080 Z" fill="#e864c5" opacity="0.49999999999999994"/></svg>