<svg width="1920" height="1080" viewBox="0 0 1920 1080" xmlns="http://www.w3.org/2000/svg"><rect width="1920" height="1080" fill="#e2ebff"/><path d="M 0,1080 C 0,1080 0,180 0,180 C 126.12051282051283,170.35897435897436 252.24102564102566,160.71794871794873 363,165 C 473.75897435897434,169.28205128205127 569.1564102564103,187.48717948717947 665,189 C 760.8435897435897,190.51282051282053 857.1333333333334,175.33333333333334 950,175 C 1042.8666666666666,174.66666666666666 1132.3102564102564,189.17948717948715 1239,189 C 1345.6897435897436,188.82051282051285 1469.625641025641,173.94871794871796 1586,170 C 1702.374358974359,166.05128205128204 1811.1871794871795,173.02564102564102 1920,180 C 1920,180 1920,1080 1920,1080 Z" fill="#634b9b" opacity="0.09999999999999999"/><path d="M 0,1080 C 0,1080 0,360 0,360 C 77.05128205128204,390.15128205128207 154.1025641025641,420.30256410256413 276,402 C 397.8974358974359,383.69743589743587 564.6410256410256,316.94102564102565 673,305 C 781.3589743589744,293.05897435897435 831.3333333333333,335.9333333333333 914,336 C 996.6666666666667,336.0666666666667 1112.025641025641,293.325641025641 1226,303 C 1339.974358974359,312.674358974359 1452.5641025641025,374.76410256410253 1568,393 C 1683.4358974358975,411.23589743589747 1801.7179487179487,385.6179487179487 1920,360 C 1920,360 1920,1080 1920,1080 Z" fill="#634b9b" opacity="0.19999999999999998"/><path d="M 0,1080 C 0,1080 0,540 0,540 C 100.99743589743588,531.1102564102564 201.99487179487176,522.2205128205129 314,530 C 426.00512820512824,537.7794871794871 549.0179487179488,562.2282051282051 660,573 C 770.9820512820512,583.7717948717949 869.9333333333332,580.8666666666666 959,551 C 1048.0666666666668,521.1333333333334 1127.248717948718,464.3051282051283 1245,476 C 1362.751282051282,487.6948717948717 1519.0717948717947,567.9128205128205 1638,590 C 1756.9282051282053,612.0871794871795 1838.4641025641026,576.0435897435898 1920,540 C 1920,540 1920,1080 1920,1080 Z" fill="#634b9b" opacity="0.3"/><path d="M 0,1080 C 0,1080 0,720 0,720 C 102.75384615384615,726.5410256410256 205.5076923076923,733.0820512820512 314,743 C 422.4923076923077,752.9179487179488 536.723076923077,766.2128205128205 653,758 C 769.276923076923,749.7871794871795 887.5999999999999,720.0666666666667 994,695 C 1100.4,669.9333333333333 1194.8769230769233,649.5205128205126 1293,673 C 1391.1230769230767,696.4794871794874 1492.892307692308,763.8512820512822 1598,779 C 1703.107692307692,794.1487179487178 1811.553846153846,757.0743589743589 1920,720 C 1920,720 1920,1080 1920,1080 Z" fill="#634b9b" opacity="0.39999999999999997"/><path d="M 0,1080 C 0,1080 0,900 0,900 C 79.2051282051282,885.1564102564103 158.4102564102564,870.3128205128205 263,871 C 367.5897435897436,871.6871794871795 497.56410256410265,887.9051282051282 613,903 C 728.4358974358973,918.0948717948718 829.3333333333331,932.0666666666667 926,945 C 1022.6666666666669,957.9333333333333 1115.1025641025642,969.828205128205 1228,967 C 1340.8974358974358,964.171794871795 1474.2564102564102,946.6205128205129 1593,933 C 1711.7435897435898,919.3794871794871 1815.871794871795,909.6897435897436 1920,900 C 1920,900 1920,1080 1920,1080 Z" fill="#634b9b" opacity="0.49999999999999994"/></svg>