<svg width="1920" height="1080" viewBox="0 0 1920 1080" xmlns="http://www.w3.org/2000/svg"><rect width="1920" height="1080" fill="#dceae0"/><path d="M 0,1080 C 0,1080 0,180 0,180 C 130.9128205128205,166.64102564102564 261.825641025641,153.28205128205127 372,168 C 482.174358974359,182.71794871794873 571.6102564102564,225.51282051282055 660,237 C 748.3897435897436,248.48717948717945 835.7333333333333,228.66666666666666 932,224 C 1028.2666666666667,219.33333333333334 1133.4564102564104,229.8205128205128 1242,234 C 1350.5435897435896,238.1794871794872 1462.4410256410256,236.05128205128207 1576,226 C 1689.5589743589744,215.94871794871793 1804.7794871794872,197.97435897435895 1920,180 C 1920,180 1920,1080 1920,1080 Z" fill="#53a271" opacity="0.09999999999999999"/><path d="M 0,1080 C 0,1080 0,360 0,360 C 101.17179487179484,334.9230769230769 202.3435897435897,309.84615384615387 321,313 C 439.6564102564103,316.15384615384613 575.797435897436,347.53846153846155 669,368 C 762.202564102564,388.46153846153845 812.4666666666668,397.99999999999994 911,400 C 1009.5333333333332,402.00000000000006 1156.3358974358973,396.46153846153845 1279,400 C 1401.6641025641027,403.53846153846155 1500.1897435897436,416.15384615384613 1603,411 C 1705.8102564102564,405.84615384615387 1812.9051282051282,382.9230769230769 1920,360 C 1920,360 1920,1080 1920,1080 Z" fill="#53a271" opacity="0.19999999999999998"/><path d="M 0,1080 C 0,1080 0,540 0,540 C 114.37435897435898,571.4410256410256 228.74871794871797,602.8820512820513 320,595 C 411.25128205128203,587.1179487179487 479.3794871794872,539.9128205128205 595,528 C 710.6205128205128,516.0871794871795 873.7333333333333,539.4666666666667 1009,534 C 1144.2666666666667,528.5333333333333 1251.6871794871797,494.22051282051285 1338,487 C 1424.3128205128203,479.77948717948715 1489.5179487179487,499.651282051282 1583,513 C 1676.4820512820513,526.348717948718 1798.2410256410258,533.1743589743589 1920,540 C 1920,540 1920,1080 1920,1080 Z" fill="#53a271" opacity="0.3"/><path d="M 0,1080 C 0,1080 0,720 0,720 C 103.71025641025639,729.2205128205128 207.42051282051278,738.4410256410257 326,751 C 444.5794871794872,763.5589743589743 578.0282051282053,779.4564102564102 688,778 C 797.9717948717947,776.5435897435898 884.4666666666665,757.7333333333333 981,749 C 1077.5333333333335,740.2666666666667 1184.1051282051283,741.6102564102564 1276,735 C 1367.8948717948717,728.3897435897436 1445.1128205128205,713.8256410256411 1550,710 C 1654.8871794871795,706.1743589743589 1787.4435897435897,713.0871794871795 1920,720 C 1920,720 1920,1080 1920,1080 Z" fill="#53a271" opacity="0.39999999999999997"/><path d="M 0,1080 C 0,1080 0,900 0,900 C 106.79999999999998,865.1025641025641 213.59999999999997,830.2051282051282 328,835 C 442.40000000000003,839.7948717948718 564.4,884.2820512820513 666,910 C 767.6,935.7179487179487 848.8000000000002,942.6666666666666 944,941 C 1039.1999999999998,939.3333333333334 1148.3999999999999,929.0512820512821 1266,912 C 1383.6000000000001,894.9487179487179 1509.6000000000001,871.1282051282051 1620,868 C 1730.3999999999999,864.8717948717949 1825.1999999999998,882.4358974358975 1920,900 C 1920,900 1920,1080 1920,1080 Z" fill="#53a271" opacity="0.49999999999999994"/></svg>