<svg width="1920" height="1080" viewBox="0 0 1920 1080" xmlns="http://www.w3.org/2000/svg"><rect width="1920" height="1080" fill="#feefdb"/><path d="M 0,1080 C 0,1080 0,180 0,180 C 89.9769230769231,190.6102564102564 179.9538461538462,201.22051282051282 302,187 C 424.0461538461538,172.77948717948718 578.1615384615385,133.7282051282051 692,150 C 805.8384615384615,166.2717948717949 879.4000000000001,237.86666666666667 969,225 C 1058.6,212.13333333333333 1164.2384615384615,114.80512820512821 1258,112 C 1351.7615384615385,109.19487179487179 1433.6461538461538,200.9128205128205 1542,228 C 1650.3538461538462,255.0871794871795 1785.1769230769232,217.54358974358973 1920,180 C 1920,180 1920,1080 1920,1080 Z" fill="#e65c5c" opacity="0.09999999999999999"/><path d="M 0,1080 C 0,1080 0,360 0,360 C 139.09487179487178,350.53846153846155 278.18974358974356,341.07692307692304 378,336 C 477.81025641025644,330.92307692307696 538.3358974358974,330.2307692307692 640,328 C 741.6641025641026,325.7692307692308 884.4666666666669,321.99999999999994 1006,320 C 1127.533333333333,318.00000000000006 1227.7974358974357,317.76923076923083 1331,335 C 1434.2025641025643,352.23076923076917 1540.3435897435897,386.9230769230769 1639,394 C 1737.6564102564103,401.0769230769231 1828.8282051282051,380.53846153846155 1920,360 C 1920,360 1920,1080 1920,1080 Z" fill="#e65c5c" opacity="0.19999999999999998"/><path d="M 0,1080 C 0,1080 0,540 0,540 C 111.59999999999997,543.5461538461539 223.19999999999993,547.0923076923077 343,529 C 462.80000000000007,510.90769230769234 590.8000000000001,471.1769230769231 683,491 C 775.1999999999999,510.8230769230769 831.5999999999999,590.1999999999999 927,589 C 1022.4000000000001,587.8000000000001 1156.8,506.02307692307687 1263,479 C 1369.2,451.97692307692313 1447.2,479.70769230769235 1552,499 C 1656.8,518.2923076923076 1788.4,529.1461538461538 1920,540 C 1920,540 1920,1080 1920,1080 Z" fill="#e65c5c" opacity="0.3"/><path d="M 0,1080 C 0,1080 0,720 0,720 C 92.15384615384613,759.6512820512821 184.30769230769226,799.3025641025641 288,776 C 391.69230769230774,752.6974358974359 506.923076923077,666.4410256410256 624,652 C 741.076923076923,637.5589743589744 860,694.9333333333335 961,727 C 1062,759.0666666666665 1145.076923076923,765.8256410256411 1256,745 C 1366.923076923077,724.1743589743589 1505.6923076923078,675.7641025641026 1621,667 C 1736.3076923076922,658.2358974358974 1828.1538461538462,689.1179487179487 1920,720 C 1920,720 1920,1080 1920,1080 Z" fill="#e65c5c" opacity="0.39999999999999997"/><path d="M 0,1080 C 0,1080 0,900 0,900 C 117.27179487179487,929.0410256410256 234.54358974358973,958.0820512820512 325,963 C 415.45641025641027,967.9179487179488 479.09743589743584,948.7128205128205 585,949 C 690.9025641025642,949.2871794871795 839.0666666666666,969.0666666666666 948,959 C 1056.9333333333334,948.9333333333334 1126.6358974358975,909.020512820513 1220,882 C 1313.3641025641025,854.979487179487 1430.3897435897436,840.851282051282 1551,846 C 1671.6102564102564,851.148717948718 1795.8051282051283,875.574358974359 1920,900 C 1920,900 1920,1080 1920,1080 Z" fill="#e65c5c" opacity="0.49999999999999994"/></svg>