<svg width="1920" height="1080" viewBox="0 0 1920 1080" xmlns="http://www.w3.org/2000/svg"><rect width="1920" height="1080" fill="#f1ded0"/><path d="M 0,1080 C 0,1080 0,180 0,180 C 95.04871794871795,202.25384615384615 190.0974358974359,224.50769230769234 284,222 C 377.9025641025641,219.49230769230766 470.65897435897443,192.22307692307692 588,160 C 705.3410256410256,127.77692307692308 847.2666666666667,90.6 973,116 C 1098.7333333333333,141.4 1208.2743589743588,229.3769230769231 1302,247 C 1395.7256410256412,264.6230769230769 1473.6358974358975,211.8923076923077 1574,189 C 1674.3641025641025,166.1076923076923 1797.1820512820514,173.05384615384617 1920,180 C 1920,180 1920,1080 1920,1080 Z" fill="#b83e28" opacity="0.09999999999999999"/><path d="M 0,1080 C 0,1080 0,360 0,360 C 113.0871794871795,336.29999999999995 226.174358974359,312.59999999999997 332,306 C 437.825641025641,299.40000000000003 536.3897435897436,309.9 637,320 C 737.6102564102564,330.1 840.2666666666667,339.80000000000007 935,337 C 1029.7333333333333,334.19999999999993 1116.5435897435898,318.8999999999999 1227,314 C 1337.4564102564102,309.1000000000001 1471.5589743589742,314.6 1591,324 C 1710.4410256410258,333.4 1815.2205128205128,346.7 1920,360 C 1920,360 1920,1080 1920,1080 Z" fill="#b83e28" opacity="0.19999999999999998"/><path d="M 0,1080 C 0,1080 0,540 0,540 C 84.09230769230768,527.5461538461539 168.18461538461537,515.0923076923077 274,513 C 379.81538461538463,510.90769230769234 507.35384615384623,519.1769230769231 618,521 C 728.6461538461538,522.8230769230769 822.3999999999999,518.1999999999999 932,525 C 1041.6000000000001,531.8000000000001 1167.0461538461539,550.0230769230769 1294,549 C 1420.9538461538461,547.9769230769231 1549.4153846153847,527.7076923076924 1654,523 C 1758.5846153846153,518.2923076923076 1839.2923076923075,529.1461538461538 1920,540 C 1920,540 1920,1080 1920,1080 Z" fill="#b83e28" opacity="0.3"/><path d="M 0,1080 C 0,1080 0,720 0,720 C 90.45128205128205,689.6461538461539 180.9025641025641,659.2923076923078 290,684 C 399.0974358974359,708.7076923076922 526.8410256410256,788.4769230769231 645,781 C 763.1589743589744,773.5230769230769 871.7333333333333,678.8000000000001 979,661 C 1086.2666666666667,643.1999999999999 1192.225641025641,702.3230769230769 1304,726 C 1415.774358974359,749.6769230769231 1533.3641025641025,737.9076923076924 1637,731 C 1740.6358974358975,724.0923076923076 1830.3179487179486,722.0461538461539 1920,720 C 1920,720 1920,1080 1920,1080 Z" fill="#b83e28" opacity="0.39999999999999997"/><path d="M 0,1080 C 0,1080 0,900 0,900 C 116.54102564102564,874.6025641025641 233.08205128205128,849.2051282051282 336,860 C 438.9179487179487,870.7948717948718 528.2128205128206,917.7820512820512 616,946 C 703.7871794871794,974.2179487179488 790.0666666666668,983.6666666666667 916,958 C 1041.9333333333332,932.3333333333333 1207.5205128205127,871.5512820512821 1338,876 C 1468.4794871794873,880.4487179487179 1563.851282051282,950.1282051282051 1655,965 C 1746.148717948718,979.8717948717949 1833.074358974359,939.9358974358975 1920,900 C 1920,900 1920,1080 1920,1080 Z" fill="#b83e28" opacity="0.49999999999999994"/></svg>