<svg width="1920" height="1080" viewBox="0 0 1920 1080" xmlns="http://www.w3.org/2000/svg" ><rect width="1920" height="1080" fill="#fffbd6"/><path d="M 0,1080 C 0,1080 0,180 0,180 C 135.4025641025641,157.08205128205128 270.8051282051282,134.16410256410256 365,137 C 459.1948717948718,139.83589743589744 512.1820512820512,168.42564102564103 598,190 C 683.8179487179488,211.57435897435897 802.4666666666668,226.1333333333333 912,223 C 1021.5333333333332,219.8666666666667 1121.951282051282,199.04102564102567 1224,205 C 1326.048717948718,210.95897435897433 1429.7282051282052,243.70256410256408 1546,244 C 1662.2717948717948,244.29743589743592 1791.1358974358973,212.14871794871794 1920,180 C 1920,180 1920,1080 1920,1080 Z" fill="#f5c856" opacity="0.09999999999999999"/><path d="M 0,1080 C 0,1080 0,360 0,360 C 115.47179487179488,391.2692307692307 230.94358974358977,422.5384615384615 340,408 C 449.05641025641023,393.4615384615385 551.6974358974359,333.11538461538464 647,307 C 742.3025641025641,280.88461538461536 830.2666666666667,289 938,295 C 1045.7333333333333,301 1173.2358974358974,304.88461538461536 1273,304 C 1372.7641025641026,303.11538461538464 1444.7897435897435,297.46153846153845 1548,306 C 1651.2102564102565,314.53846153846155 1785.6051282051283,337.2692307692308 1920,360 C 1920,360 1920,1080 1920,1080 Z" fill="#f5c856" opacity="0.19999999999999998"/><path d="M 0,1080 C 0,1080 0,540 0,540 C 75.16153846153844,566.0179487179487 150.32307692307688,592.0358974358975 262,571 C 373.6769230769231,549.9641025641025 521.8692307692307,481.874358974359 654,479 C 786.1307692307693,476.125641025641 902.2,538.4666666666667 991,560 C 1079.8,581.5333333333333 1141.3307692307694,562.2589743589743 1253,539 C 1364.6692307692306,515.7410256410257 1526.476923076923,488.49743589743593 1646,488 C 1765.523076923077,487.50256410256407 1842.7615384615385,513.751282051282 1920,540 C 1920,540 1920,1080 1920,1080 Z" fill="#f5c856" opacity="0.3"/><path d="M 0,1080 C 0,1080 0,720 0,720 C 108.23076923076925,676.4333333333334 216.4615384615385,632.8666666666667 322,656 C 427.5384615384615,679.1333333333333 530.3846153846154,768.9666666666666 644,782 C 757.6153846153846,795.0333333333334 882,731.2666666666667 994,705 C 1106,678.7333333333333 1205.6153846153845,689.9666666666667 1309,713 C 1412.3846153846155,736.0333333333333 1519.5384615384617,770.8666666666667 1622,774 C 1724.4615384615383,777.1333333333333 1822.230769230769,748.5666666666666 1920,720 C 1920,720 1920,1080 1920,1080 Z" fill="#f5c856" opacity="0.39999999999999997"/><path d="M 0,1080 C 0,1080 0,900 0,900 C 101.29743589743592,908.0410256410256 202.59487179487184,916.0820512820512 313,926 C 423.40512820512816,935.9179487179488 542.9179487179487,947.7128205128206 667,943 C 791.0820512820513,938.2871794871794 919.7333333333333,917.0666666666667 1004,893 C 1088.2666666666667,868.9333333333333 1128.148717948718,842.0205128205129 1225,844 C 1321.851282051282,845.9794871794871 1475.6717948717946,876.851282051282 1601,891 C 1726.3282051282054,905.148717948718 1823.1641025641027,902.574358974359 1920,900 C 1920,900 1920,1080 1920,1080 Z" fill="#f5c856" opacity="0.49999999999999994"/></svg>